<svg xmlns="http://www.w3.org/2000/svg" viewBox="0 0 240 80" width="240" height="80">
  <!-- Cloud shape -->
  <g fill="#F38020">
    <path d="M170.4 35.2c-.4-1.6-1.1-3-2.1-4.2a14.2 14.2 0 0 0-3.5-3 14 14 0 0 0-4.4-1.7 14.3 14.3 0 0 0-4.7-.1 20.5 20.5 0 0 0-6.9-9.3 20.3 20.3 0 0 0-11.3-3.9 20.4 20.4 0 0 0-11.5 3.1 20.6 20.6 0 0 0-7.5 8.7 11.5 11.5 0 0 0-5.2-.4 11.4 11.4 0 0 0-4.8 1.8 11.5 11.5 0 0 0-3.5 3.6 11.4 11.4 0 0 0-1.6 4.9 8.2 8.2 0 0 0-3.6 2.2 8.3 8.3 0 0 0-2 3.5 8.2 8.2 0 0 0 0 4 8.3 8.3 0 0 0 1.7 3.6H172a8.5 8.5 0 0 0 1-4.9 8.6 8.6 0 0 0-2.6-8z"/>
  </g>
  <!-- Wordmark -->
  <text x="10" y="70" font-family="'Helvetica Neue', Arial, sans-serif" font-size="18" font-weight="600" fill="#404040" letter-spacing="0">Cloudflare</text>
</svg>
